<svg xmlns="http://www.w3.org/2000/svg" version="1.0" width="512.000000pt" height="512.000000pt" viewBox="0 0 512.000000 512.000000" preserveAspectRatio="xMidYMid meet">

<g transform="translate(0.000000,512.000000) scale(0.100000,-0.100000)" fill="#ffffff" stroke="none">
<path d="M4013 4419 c-48 -24 -99 -77 -119 -125 -20 -48 -17 -141 5 -189 10 -22 51 -71 90 -110 39 -38 71 -72 71 -76 0 -3 -37 -9 -82 -13 -315 -26 -667 -177 -926 -396 -41 -34 -365 -376 -721 -759 -356 -383 -672 -719 -702 -747 -157 -147 -355 -250 -581 -300 -53 -12 -149 -19 -353 -23 -260 -6 -283 -8 -320 -28 -86 -46 -129 -117 -129 -213 0 -95 43 -167 129 -213 38 -21 52 -22 310 -22 174 0 300 5 355 13 345 54 642 194 897 424 51 46 365 378 698 738 333 360 638 685 677 723 183 173 452 301 678 323 l65 7 -68 -71 c-80 -83 -97 -120 -97 -204 0 -116 74 -205 191 -230 45 -9 64 -8 114 7 58 17 67 24 348 303 316 315 337 342 337 442 0 102 -20 129 -341 442 -163 159 -307 291 -327 300 -53 25 -146 23 -199 -3z" fill="#ffffff"/>
<path d="M420 3911 c-112 -37 -174 -119 -174 -231 0 -96 43 -167 129 -213 37 -20 61 -22 320 -28 342 -9 433 -26 630 -120 168 -79 269 -161 465 -373 88 -95 149 -154 176 -167 165 -80 344 31 344 213 0 42 -6 75 -20 102 -23 48 -272 317 -375 406 -239 207 -507 334 -840 397 -90 17 -612 28 -655 14z" fill="#ffffff"/>
<path d="M2816 2335 c-133 -47 -198 -202 -138 -327 33 -67 363 -397 482 -481 228 -161 545 -282 795 -303 39 -3 76 -8 84 -10 9 -3 -10 -30 -58 -78 -82 -85 -104 -129 -104 -206 0 -92 47 -171 127 -213 63 -33 166 -31 226 5 25 15 170 152 322 305 294 295 317 326 318 413 0 103 0 102 -323 427 -335 337 -337 339 -451 331 -53 -3 -74 -10 -108 -34 -69 -48 -101 -103 -106 -178 -6 -94 10 -129 96 -218 l75 -78 -36 0 c-96 0 -269 51 -412 121 -145 71 -250 155 -429 343 -143 150 -163 167 -209 181 -62 18 -100 18 -151 0z" fill="#ffffff"/>
</g>
</svg>