<svg xmlns="http://www.w3.org/2000/svg" version="1.0" width="512.000000pt" height="512.000000pt" viewBox="0 0 512.000000 512.000000" preserveAspectRatio="xMidYMid meet">

<g transform="translate(0.000000,512.000000) scale(0.100000,-0.100000)" fill="#ffffff" stroke="none">
<path d="M985 4744 c-110 -19 -223 -57 -330 -111 -322 -161 -540 -444 -632 -820 -14 -59 -17 -162 -20 -793 -3 -504 -1 -755 7 -824 31 -272 154 -521 351 -711 113 -109 187 -161 324 -227 196 -93 391 -123 752 -116 228 5 259 12 321 84 66 74 80 170 38 259 -24 54 -71 100 -121 120 -20 9 -122 14 -315 18 -255 4 -293 7 -360 27 -205 59 -360 192 -450 385 -67 143 -65 115 -65 920 0 663 2 736 17 795 64 235 242 421 482 504 61 21 69 21 1544 24 1461 2 1485 2 1569 -18 218 -52 416 -223 493 -428 49 -128 51 -171 47 -924 -3 -787 0 -749 -78 -898 -77 -147 -179 -247 -324 -316 -140 -67 -144 -67 -637 -72 -247 -2 -448 0 -448 4 0 4 92 100 204 213 219 222 230 239 229 336 -1 88 -49 167 -127 208 -54 28 -165 30 -216 3 -46 -24 -854 -829 -886 -883 -35 -58 -42 -138 -19 -200 15 -41 80 -111 439 -471 238 -240 438 -433 461 -445 30 -16 58 -21 111 -22 61 0 77 4 120 30 66 42 106 108 112 186 8 107 -6 129 -231 357 l-201 202 385 0 c430 0 561 8 703 45 109 27 271 100 367 166 35 24 106 84 158 134 197 190 320 439 351 711 8 69 10 320 7 819 -3 609 -6 731 -20 791 -110 496 -482 855 -971 939 -128 22 -3016 21 -3141 -1z" fill="#ffffff"/>
</g>
</svg>